<?xml version="1.0" encoding="utf-8"?>
<!-- Generator: Adobe Illustrator 15.0.0, SVG Export Plug-In . SVG Version: 6.00 Build 0)  -->
<!DOCTYPE svg PUBLIC "-//W3C//DTD SVG 1.1//EN" "http://www.w3.org/Graphics/SVG/1.1/DTD/svg11.dtd">
<svg version="1.1" id="Layer_1" xmlns="http://www.w3.org/2000/svg" xmlns:xlink="http://www.w3.org/1999/xlink" x="0px" y="0px"
	 width="921.027px" height="566.928px" viewBox="0 0 921.027 566.928" enable-background="new 0 0 921.027 566.928"
	 xml:space="preserve">
<g>
	<g id="background_cutout_letters">
		<path fill="#383434" d="M530.372,299.321c6.244,0,10.994-1.465,14.254-4.389c3.254-2.92,4.887-7.574,4.887-13.951
			c0-5.58-1.567-9.901-4.684-12.959c-3.129-3.057-7.551-4.586-13.261-4.586c-2.924,0-5.715,0.334-8.37,0.996v34.49
			c1.062,0.131,2.155,0.231,3.285,0.297C527.614,299.29,528.907,299.321,530.372,299.321z"/>
		<path fill="#383434" d="M202.061,264.235c-1.467,0-2.728,0.037-3.794,0.101c-1.062,0.065-2.322,0.168-3.779,0.297v92.696
			c1.457,0.271,2.751,0.433,3.883,0.496c1.129,0.07,2.692,0.104,4.687,0.104c5.445,0,10.196-1.127,14.253-3.392
			c4.052-2.258,7.443-5.481,10.17-9.668c2.719-4.186,4.783-9.2,6.178-15.049c1.396-5.85,2.09-12.428,2.09-19.738
			c0-14.354-2.93-25.579-8.768-33.686C221.128,268.29,212.821,264.235,202.061,264.235z"/>
		<path fill="#383434" d="M531.369,320.248c-1.464,0-2.958,0.037-4.485,0.103c-1.529,0.07-2.76,0.231-3.686,0.496v37.68
			c1.324,0.269,2.555,0.43,3.686,0.496c1.13,0.068,2.753,0.102,4.884,0.102c6.108,0,10.93-1.562,14.454-4.688
			c3.517-3.119,5.283-8.074,5.283-14.85c0-5.847-1.768-10.531-5.283-14.056C542.696,322.014,537.747,320.248,531.369,320.248z"/>
		<path fill="#383434" d="M792.823,190.76l-28.479-46.473l-82.827-23.73c-6.164-7.518-14.623-14.609-24.965-21.16
			c-3.236,13.332-11.144,28.326-23.344,36.56c-18.67,29.918-51.402,48.246-86.952,48.246c-34.263,0-66.051-17.494-84.858-45.207
			c-18.798,27.713-50.596,45.207-84.849,45.207c-34.743,0-66.922-17.597-85.768-46.402c-13.854-7.615-22.856-23.797-26.337-38.381
			c-10.326,6.541-18.776,13.625-24.937,21.139l-87.584,23.73l-23.729,46.473C70.73,200.627,26.901,250.706,26.901,310.989
			c0,60.281,43.829,110.359,101.295,120.224l23.729,46.471l73.597,19.938l33.312-11.514l5.428,15.695
			c4.668,13.492,14.555,27.676,19.175,29.455c5.186-1.724,15.818-16.814,20.783-29.59c4-11.437,24.896-64.382,68.366-64.382
			c16.057,0,31.088,7.42,44.271,21.685c12.778-14.26,27.577-21.676,43.611-21.676c16.068,0,30.899,7.416,43.693,21.68
			c13.187-14.269,28.212-21.688,44.272-21.688c43.473,0,64.366,52.945,68.367,64.381c4.965,12.775,15.592,27.867,20.784,29.591
			c4.614-1.779,14.508-15.963,19.169-29.455l5.433-15.695l33.312,11.514l73.591-19.938l23.731-46.471
			c57.475-9.863,101.303-59.941,101.303-120.224C894.126,250.706,850.298,200.627,792.823,190.76z M263.057,340.981
			c-2.931,9.307-7.345,17.242-13.256,23.824c-5.915,6.578-13.322,11.629-22.227,15.146c-8.904,3.523-19.343,5.285-31.301,5.285
			c-5.976,0-11.359-0.201-16.146-0.598c-4.781-0.398-10.1-0.928-15.948-1.596V238.918c5.45-0.664,10.602-1.197,15.453-1.597
			c4.851-0.397,10.197-0.598,16.048-0.598c11.959,0,22.425,1.697,31.394,5.084c8.974,3.389,16.449,8.242,22.428,14.549
			c5.98,6.318,10.468,13.99,13.452,23.027c2.994,9.039,4.49,19.203,4.49,30.5C267.445,321.315,265.984,331.682,263.057,340.981z
			 M325.254,384.039H294.95V237.92h30.304V384.039L325.254,384.039z M415.151,329.821v54.219h-30.296v-54.42l-39.473-91.698h32.892
			l21.729,57.809l21.93-57.809h32.492L415.151,329.821z M579.81,359.92c-2.262,5.182-5.683,9.635-10.267,13.356
			c-4.584,3.723-10.363,6.646-17.346,8.771c-6.979,2.123-15.119,3.188-24.415,3.188c-4.387,0-9.738-0.168-16.048-0.496
			c-6.312-0.334-12.259-0.899-17.845-1.696V239.116c2.128-0.398,4.616-0.728,7.476-0.996c2.855-0.265,5.81-0.494,8.873-0.695
			c3.053-0.199,6.01-0.365,8.87-0.5c2.853-0.131,5.283-0.199,7.277-0.199c9.163,0,17.139,1.101,23.92,3.291
			c6.776,2.191,12.357,5.08,16.742,8.672c4.391,3.588,7.644,7.707,9.771,12.355c2.123,4.656,3.189,9.504,3.189,14.555
			c0,7.709-1.793,14.254-5.383,19.635c-3.587,5.381-8.51,9.804-14.753,13.256c7.573,2.926,13.358,7.31,17.345,13.154
			c3.987,5.854,5.979,12.959,5.979,21.332C583.197,349.088,582.068,354.739,579.81,359.92z M639.611,384.039h-30.305V237.92h30.305
			V384.039z M776.557,341.578c-2.664,9.31-6.479,17.242-11.462,23.822s-11.03,11.695-18.143,15.351
			c-7.108,3.655-15.044,5.481-23.823,5.481c-8.64,0-16.412-1.795-23.318-5.381c-6.92-3.588-12.793-8.672-17.646-15.25
			c-4.853-6.58-8.572-14.484-11.16-23.723c-2.591-9.236-3.891-19.505-3.891-30.8c0-11.294,1.331-21.596,3.987-30.896
			c2.664-9.303,6.479-17.244,11.462-23.826c4.987-6.576,11.031-11.66,18.142-15.248c7.111-3.588,15.051-5.381,23.825-5.381
			c8.634,0,16.407,1.76,23.322,5.283c6.905,3.523,12.788,8.57,17.641,15.146c4.85,6.584,8.567,14.452,11.163,23.627
			c2.591,9.166,3.89,19.467,3.89,30.895C780.546,321.977,779.215,332.281,776.557,341.578z"/>
		<path fill="#383434" d="M723.73,262.442c-7.976,0-14.123,4.254-18.439,12.761c-4.319,8.504-6.477,20.396-6.477,35.68
			c0,15.151,2.156,27.075,6.477,35.78c4.316,8.705,10.465,13.058,18.439,13.058c7.974,0,14.151-4.353,18.532-13.058
			c4.39-8.704,6.588-20.629,6.588-35.78c0-15.283-2.198-27.176-6.588-35.68C737.883,266.696,731.704,262.442,723.73,262.442z"/>
	</g>
	<path id="black_background_full" display="none" fill="#383434" d="M792.823,190.76l-28.479-46.473l-82.827-23.73
		c-6.164-7.518-14.623-14.609-24.965-21.16c-3.236,13.332-11.144,28.326-23.344,36.56c-18.67,29.918-51.402,48.246-86.952,48.246
		c-34.263,0-66.051-17.494-84.858-45.207c-18.798,27.713-50.596,45.207-84.849,45.207c-34.743,0-66.922-17.597-85.768-46.402
		c-13.854-7.615-22.856-23.797-26.337-38.381c-10.326,6.541-18.776,13.625-24.937,21.139l-87.584,23.73l-23.729,46.473
		C70.73,200.627,26.901,250.706,26.901,310.989c0,60.281,43.829,110.359,101.295,120.224l23.729,46.471l73.597,19.938l33.312-11.514
		l5.428,15.695c4.668,13.492,14.555,27.676,19.175,29.455c5.186-1.724,15.818-16.814,20.783-29.59
		c4-11.437,24.896-64.382,68.366-64.382c16.057,0,31.088,7.42,44.271,21.685c12.778-14.26,27.577-21.676,43.611-21.676
		c16.068,0,30.899,7.416,43.693,21.68c13.187-14.269,28.212-21.688,44.272-21.688c43.473,0,64.366,52.945,68.367,64.381
		c4.965,12.775,15.592,27.867,20.784,29.591c4.614-1.779,14.508-15.963,19.169-29.455l5.433-15.695l33.312,11.514l73.591-19.938
		l23.731-46.471c57.475-9.863,101.303-59.941,101.303-120.224C894.126,250.706,850.298,200.627,792.823,190.76z"/>
	<g id="DIYBIO_white" display="none">
		<path display="inline" fill="#383434" d="M267.445,309.885c0,11.43-1.461,21.797-4.389,31.096
			c-2.931,9.307-7.345,17.242-13.257,23.824c-5.914,6.578-13.321,11.629-22.226,15.146c-8.904,3.523-19.343,5.285-31.301,5.285
			c-5.976,0-11.359-0.201-16.146-0.598c-4.781-0.398-10.1-0.928-15.948-1.596V238.918c5.45-0.664,10.602-1.197,15.453-1.597
			c4.851-0.397,10.197-0.598,16.048-0.598c11.959,0,22.425,1.697,31.394,5.084c8.974,3.389,16.449,8.242,22.428,14.549
			c5.98,6.318,10.468,13.99,13.452,23.027C265.949,288.424,267.445,298.588,267.445,309.885z M235.746,310.083
			c0-14.354-2.93-25.58-8.768-33.687c-5.852-8.106-14.157-12.162-24.918-12.162c-1.468,0-2.728,0.037-3.794,0.101
			c-1.062,0.065-2.322,0.168-3.779,0.297v92.696c1.457,0.271,2.751,0.433,3.883,0.496c1.129,0.07,2.692,0.104,4.687,0.104
			c5.445,0,10.196-1.127,14.253-3.392c4.052-2.258,7.443-5.481,10.17-9.668c2.719-4.186,4.783-9.2,6.178-15.049
			C235.052,323.971,235.746,317.393,235.746,310.083z"/>
		<path display="inline" fill="#383434" d="M294.95,384.039V237.92h30.304v146.119H294.95z"/>
		<path display="inline" fill="#383434" d="M415.151,329.821v54.219h-30.296v-54.42l-39.473-91.698h32.892l21.729,57.809
			l21.93-57.809h32.492L415.151,329.821z"/>
		<path display="inline" fill="#383434" d="M583.197,342.975c0,6.113-1.129,11.764-3.388,16.945
			c-2.262,5.182-5.683,9.635-10.268,13.356c-4.582,3.723-10.362,6.646-17.345,8.771c-6.979,2.123-15.119,3.188-24.415,3.188
			c-4.387,0-9.738-0.168-16.048-0.496c-6.312-0.334-12.259-0.899-17.845-1.696V239.116c2.128-0.398,4.616-0.728,7.476-0.996
			c2.855-0.265,5.81-0.494,8.873-0.695c3.054-0.199,6.011-0.365,8.87-0.5c2.853-0.131,5.283-0.199,7.277-0.199
			c9.163,0,17.139,1.101,23.92,3.291c6.776,2.191,12.357,5.08,16.742,8.672c4.391,3.588,7.644,7.707,9.771,12.355
			c2.123,4.656,3.189,9.504,3.189,14.555c0,7.709-1.793,14.254-5.384,19.635c-3.586,5.381-8.509,9.804-14.752,13.256
			c7.573,2.926,13.358,7.31,17.345,13.154C581.207,327.498,583.197,334.602,583.197,342.975z M549.512,280.981
			c0-5.58-1.567-9.901-4.684-12.959c-3.129-3.057-7.551-4.586-13.261-4.586c-2.924,0-5.715,0.334-8.37,0.996v34.49
			c1.062,0.131,2.155,0.231,3.285,0.297c1.131,0.07,2.424,0.102,3.889,0.102c6.244,0,10.994-1.465,14.254-4.389
			C547.88,292.012,549.512,287.358,549.512,280.981z M551.505,339.586c0-5.847-1.768-10.531-5.283-14.056
			c-3.524-3.518-8.475-5.283-14.853-5.283c-1.464,0-2.958,0.037-4.485,0.103c-1.529,0.07-2.76,0.231-3.686,0.496v37.68
			c1.324,0.269,2.555,0.43,3.686,0.496c1.13,0.068,2.753,0.102,4.884,0.102c6.108,0,10.93-1.562,14.454-4.688
			C549.737,351.317,551.505,346.362,551.505,339.586z"/>
		<path display="inline" fill="#383434" d="M609.307,384.039V237.92h30.305v146.119H609.307z"/>
		<path display="inline" fill="#383434" d="M780.546,310.68c0,11.297-1.331,21.602-3.988,30.897
			c-2.664,9.31-6.479,17.242-11.462,23.822s-11.03,11.695-18.143,15.35c-7.108,3.656-15.044,5.482-23.823,5.482
			c-8.64,0-16.412-1.795-23.318-5.381c-6.92-3.588-12.793-8.672-17.646-15.25c-4.853-6.58-8.572-14.484-11.16-23.723
			c-2.591-9.236-3.891-19.505-3.891-30.8c0-11.294,1.331-21.596,3.987-30.896c2.664-9.303,6.479-17.244,11.462-23.826
			c4.987-6.576,11.031-11.66,18.142-15.248c7.111-3.588,15.051-5.381,23.825-5.381c8.634,0,16.407,1.76,23.322,5.283
			c6.905,3.523,12.788,8.57,17.641,15.146c4.85,6.584,8.567,14.452,11.163,23.627C779.246,288.952,780.546,299.252,780.546,310.68z
			 M748.851,310.881c0-15.283-2.198-27.176-6.588-35.68c-4.381-8.507-10.56-12.761-18.532-12.761
			c-7.976,0-14.123,4.254-18.439,12.761c-4.319,8.504-6.477,20.396-6.477,35.68c0,15.151,2.156,27.075,6.477,35.78
			c4.316,8.705,10.465,13.058,18.439,13.058c7.974,0,14.151-4.353,18.532-13.058C746.652,337.958,748.851,326.033,748.851,310.881z"
			/>
	</g>
	<g>
		<g>
			<path fill="#383434" d="M690.405,513.436l-17.943-6.199c-3.654,10.558-17.891,40.707-34.829,40.707
				c-17.038,0-32.468-30.242-36.427-40.551c-1.896-5.476-19.459-53.494-52.771-53.494c-20.422,0-35.503,18.17-44.551,33.377
				c-8.562-15.184-22.989-33.209-43.328-33.363v-0.004l-0.047,0.004c0,0-0.028-0.004-0.041-0.004v0.004
				c-20.339,0.154-34.77,18.181-43.329,33.363c-9.053-15.207-24.129-33.377-44.553-33.377c-33.312,0-50.874,48.021-52.771,53.494
				c-3.958,10.309-19.387,40.551-36.432,40.551c-16.938,0-31.171-30.149-34.822-40.707l-17.952,6.199
				c1.9,5.479,19.467,53.492,52.774,53.492c20.445,0,35.537-18.154,44.585-33.324c8.604,15.24,23.104,33.324,43.556,33.324
				c20.937,0,36.27-19.056,45.229-34.433c8.453,15.336,23.019,34.123,43.714,34.406v0.004c0.013,0,0.021-0.004,0.021-0.004
				l0.065,0.004v-0.004c20.695-0.283,35.254-19.07,43.708-34.406c8.964,15.377,24.297,34.433,45.229,34.433
				c20.454,0,34.956-18.084,43.562-33.324c9.047,15.17,24.139,33.324,44.579,33.324
				C670.943,566.928,688.512,518.914,690.405,513.436z M407.188,509.274c-4.9,11.666-19.557,38.67-35.662,38.67
				c-14.855,0-27.717-23.406-33.084-36.199c4.704-12.182,18.285-38.858,34.146-38.858
				C387.646,472.885,401.36,496.393,407.188,509.274z M493.806,510.164c-4.861,12.199-17.975,37.283-33.297,37.738
				c-15.314-0.455-28.433-25.539-33.294-37.738c5.168-12.69,18.174-37.034,33.294-37.256
				C475.638,473.129,488.641,497.473,493.806,510.164z M582.578,511.744c-5.363,12.793-18.226,36.199-33.086,36.199
				c-16.102,0-30.758-27.004-35.651-38.67c5.819-12.881,19.531-36.389,34.595-36.389
				C564.296,472.885,577.879,499.563,582.578,511.744z"/>
		</g>
		<g>
			<g>
				<polygon fill="#383434" points="366.154,548.928 356.661,548.928 356.661,469.821 366.154,469.821 				"/>
			</g>
			<g>
				<polygon fill="#383434" points="389.093,548.928 379.601,548.928 379.601,469.821 389.093,469.821 				"/>
			</g>
		</g>
		<g>
			<g>
				<polygon fill="#383434" points="453.96,548.928 444.467,548.928 444.467,469.821 453.96,469.821 				"/>
			</g>
			<g>
				<polygon fill="#383434" points="476.897,548.928 467.406,548.928 467.406,469.821 476.897,469.821 				"/>
			</g>
		</g>
		<g>
			<g>
				<polygon fill="#383434" points="540.978,548.928 531.485,548.928 531.485,469.821 540.978,469.821 				"/>
			</g>
			<g>
				<polygon fill="#383434" points="563.917,548.928 554.425,548.928 554.425,469.821 563.917,469.821 				"/>
			</g>
		</g>
	</g>
	<g>
		<path fill="#383434" d="M624.478,56.52c-10.113-31.199-38.461-54.095-72.483-56.255V0h-177.53v0.078
			c-34.939,0.677-64.428,23.244-75.44,54.568c-9.316,5.98-16.019,21.668-16.019,32.051c0,12.283,9.382,32.048,21.388,34.281
			c13.886,25.299,40.76,42.457,71.665,42.457c34.884,0,64.577-21.896,76.302-52.664h18.087
			c11.728,30.769,41.429,52.664,76.312,52.664c31.148,0,58.208-17.428,71.992-43.055c10.976-3.986,19.271-22.133,19.271-33.685
			C638.021,77.262,632.479,63.45,624.478,56.52z M378.274,138.913c-30.593,0-55.381-24.8-55.381-55.39
			c0-30.592,24.788-55.393,55.381-55.393c8.416,0,16.37,1.932,23.51,5.292L340.452,81.61l5.868,7.463l64.261-50.485
			c4.171,3.01,7.906,6.563,11.097,10.59l-41.28,32.434l5.868,7.463L426.961,57.1c4.273,7.851,6.703,16.853,6.703,26.424
			C433.664,114.114,408.865,138.913,378.274,138.913z M545.488,138.913c-30.593,0-55.398-24.8-55.398-55.39
			c0-30.592,24.807-55.393,55.398-55.393c10.994,0,21.218,3.243,29.83,8.768L518.419,81.61l5.867,7.463l58.766-46.176
			c3.16,2.922,6.016,6.16,8.417,9.738l-33.289,29.131l6.248,7.148l31.712-27.752c3.031,6.844,4.736,14.397,4.736,22.36
			C600.876,114.114,576.079,138.913,545.488,138.913z"/>
	</g>
	<path fill="#383434" d="M820.475,170.231l-28.479-53.112L691.603,93.506c-10.017-8.953-22.286-17.103-36.265-24.416
		c1.474,4.602,2.42,9.26,2.771,13.783c10.707,6.143,20.135,12.799,27.885,19.955l1.548,1.426l93.713,23.621l28.476,50.088
		l3.771,1.176c57.887,18.143,96.779,71.129,96.779,131.85c0,60.72-38.894,113.705-96.779,131.849l-3.771,1.178L786.001,494.1
		l-80.733,20.986l-2.888,8.348c-0.425,1.219-1.081,3.022-1.955,5.219l96.319-23.795l23.73-53.117
		c60.283-20.649,100.553-76.66,100.553-140.752C921.027,246.893,880.759,190.883,820.475,170.231z"/>
	<path fill="#383434" d="M229.426,93.506l-105.144,23.611l-23.729,53.112C40.269,190.883,0,246.893,0,310.989
		c0,64.092,40.27,120.103,100.553,140.752l23.729,53.117l99.752,24.474c-1.022-2.519-1.757-4.554-2.229-5.896l-2.66-7.672
		L135.027,494.1l-23.732-50.086l-3.771-1.178c-57.882-18.144-96.773-71.13-96.773-131.849c0-60.721,38.893-113.707,96.773-131.85
		l3.771-1.176l23.732-50.088l98.458-23.621l1.547-1.426c7.819-7.224,17.28-13.968,28.106-20.158
		c0.361-4.349,1.263-8.996,2.754-13.715C251.816,76.301,239.501,84.502,229.426,93.506z"/>
</g>
</svg>
