<?xml version="1.0" encoding="utf-8"?>
<!-- Generator: Adobe Illustrator 15.0.0, SVG Export Plug-In . SVG Version: 6.00 Build 0)  -->
<!DOCTYPE svg PUBLIC "-//W3C//DTD SVG 1.1//EN" "http://www.w3.org/Graphics/SVG/1.1/DTD/svg11.dtd">
<svg version="1.1" id="Layer_1" xmlns="http://www.w3.org/2000/svg" xmlns:xlink="http://www.w3.org/1999/xlink" x="0px" y="0px"
	 width="355.016px" height="163.436px" viewBox="0 0 355.016 163.436" enable-background="new 0 0 355.016 163.436"
	 xml:space="preserve">
<g>
	<path fill="#231F20" d="M341.472,56.52c-10.113-31.199-38.461-54.095-72.483-56.255V0H91.459v0.078
		c-34.94,0.677-64.428,23.245-75.441,54.569C6.701,60.627,0,76.315,0,86.698c0,12.283,9.381,32.047,21.387,34.281
		c13.886,25.299,40.76,42.457,71.665,42.457c34.884,0,64.577-21.896,76.302-52.664h18.087
		c11.727,30.768,41.428,52.664,76.311,52.664c31.149,0,58.208-17.428,71.992-43.055c10.976-3.986,19.272-22.133,19.272-33.684
		C355.016,77.262,349.473,63.45,341.472,56.52z M95.269,138.913c-30.593,0-55.381-24.799-55.381-55.389
		c0-30.592,24.788-55.393,55.381-55.393c8.416,0,16.37,1.932,23.51,5.292L57.446,81.61l5.868,7.463l64.261-50.486
		c4.17,3.01,7.906,6.564,11.096,10.59L97.391,81.61l5.868,7.463L143.954,57.1c4.274,7.85,6.704,16.852,6.704,26.424
		C150.658,114.114,125.859,138.913,95.269,138.913z M262.482,138.913c-30.593,0-55.399-24.799-55.399-55.389
		c0-30.592,24.807-55.393,55.399-55.393c10.994,0,21.218,3.243,29.83,8.768l-56.9,44.711l5.868,7.463l58.765-46.176
		c3.16,2.922,6.016,6.16,8.417,9.738l-33.289,29.131l6.248,7.148l31.712-27.752c3.032,6.844,4.737,14.398,4.737,22.361
		C317.87,114.114,293.073,138.913,262.482,138.913z"/>
</g>
</svg>
